<svg width="640" height="640" viewBox="-1.005 -1.005 2.01 2.01"><circle cx="0" cy="0" r="1" fill="none" stroke="gray" stroke-width="0.001"></circle><g stroke-width="0.01"><g stroke="gray" stroke-width="0.005"><g><path fill="none" d="M-0.40942476097622094,-0.7073315505315223 A183.15770350084574 183.15770350084574 0 0 0 -0.2592500000000002 -0.44903417186223127"></path><path fill="none" d="M-0.2592500000000002,-0.44903417186223127 A0.9942533630220489 0.9942533630220489 0 0 1 -0.5714160695650146 -0.5932248091440964"></path><path fill="none" d="M-0.40942476097622094,-0.7073315505315223 A0.23472262934738042 0.23472262934738042 0 0 1 -0.5714160695650146 -0.5932248091440964"></path></g><g><circle cx="-0.40942476097622094" cy="-0.7073315505315223" r="0.01"></circle><circle cx="-0.2592500000000002" cy="-0.44903417186223127" r="0.01"></circle><circle cx="-0.5714160695650146" cy="-0.5932248091440964" r="0.01"></circle></g></g><g stroke="gray" stroke-width="0.005"><g><path fill="none" d="M-0.6129603581532693,-0.3538928277823591 A0.7050714603401407 0.7050714603401407 0 0 0 -0.7324938922908683 -0.507291746639154"></path><path fill="none" d="M-0.7324938922908683,-0.507291746639154 A0.1991561598341759 0.1991561598341759 0 0 0 -0.5714160695650146 -0.5932248091440964"></path><path fill="none" d="M-0.6129603581532693,-0.3538928277823591 A0.35253573017007117 0.35253573017007117 0 0 0 -0.5714160695650146 -0.5932248091440964"></path></g><g><circle cx="-0.6129603581532693" cy="-0.3538928277823591" r="0.01"></circle><circle cx="-0.7324938922908683" cy="-0.507291746639154" r="0.01"></circle><circle cx="-0.5714160695650146" cy="-0.5932248091440964" r="0.01"></circle></g></g><g stroke="gray" stroke-width="0.005"><g><path fill="none" d="M-0.8172794721466451,-0.0009064686780174691 A0.23472262934738045 0.23472262934738045 0 0 0 -0.79945578965647 -0.19824842780190954"></path><path fill="none" d="M-0.79945578965647,-0.19824842780190954 A0.9942533630220504 0.9942533630220504 0 0 1 -0.5184999999999995 4.440892098500626e-16"></path><path fill="none" d="M-0.8172794721466451,-0.0009064686780174691 A183.15770350069505 183.15770350069505 0 0 1 -0.5184999999999995 4.440892098500626e-16"></path></g><g><circle cx="-0.8172794721466451" cy="-0.0009064686780174691" r="0.01"></circle><circle cx="-0.79945578965647" cy="-0.19824842780190954" r="0.01"></circle><circle cx="-0.5184999999999995" cy="4.440892098500626e-16" r="0.01"></circle></g></g><g stroke="gray" stroke-width="0.005"><g><path fill="none" d="M-0.6129603581532693,-0.3538928277823591 A0.35253573017007117 0.35253573017007117 0 0 1 -0.79945578965647 -0.19824842780190954"></path><path fill="none" d="M-0.79945578965647,-0.19824842780190954 A0.1991561598341763 0.1991561598341763 0 0 0 -0.8055744858651208 -0.3807124455212568"></path><path fill="none" d="M-0.6129603581532693,-0.3538928277823591 A0.7050714603401437 0.7050714603401437 0 0 1 -0.8055744858651208 -0.3807124455212568"></path></g><g><circle cx="-0.6129603581532693" cy="-0.3538928277823591" r="0.01"></circle><circle cx="-0.79945578965647" cy="-0.19824842780190954" r="0.01"></circle><circle cx="-0.8055744858651208" cy="-0.3807124455212568" r="0.01"></circle></g></g><g stroke="gray" stroke-width="0.005"><g><path fill="none" d="M-0.4078547111704244,-0.7082380192095401 A0.23472262934738036 0.23472262934738036 0 0 0 -0.22803972009145568 -0.7914732369460067"></path><path fill="none" d="M-0.22803972009145568,-0.7914732369460067 A0.9942533630220494 0.9942533630220494 0 0 1 -0.25924999999999987 -0.4490341718622315"></path><path fill="none" d="M-0.4078547111704244,-0.7082380192095401 A183.15770350084583 183.15770350084583 0 0 1 -0.25924999999999987 -0.4490341718622315"></path></g><g><circle cx="-0.4078547111704244" cy="-0.7082380192095401" r="0.01"></circle><circle cx="-0.22803972009145568" cy="-0.7914732369460067" r="0.01"></circle><circle cx="-0.25924999999999987" cy="-0.4490341718622315" r="0.01"></circle></g></g><g stroke="gray" stroke-width="0.005"><g><path fill="none" d="M2.220446049250313e-16,-0.7077856555647187 A0.3525357301700712 0.3525357301700712 0 0 1 -0.22803972009145568 -0.7914732369460067"></path><path fill="none" d="M-0.22803972009145568,-0.7914732369460067 A0.199156159834176 0.199156159834176 0 0 0 -0.07308059357425256 -0.8880041921604113"></path><path fill="none" d="M2.220446049250313e-16,-0.7077856555647187 A0.7050714603401399 0.7050714603401399 0 0 1 -0.07308059357425256 -0.8880041921604113"></path></g><g><circle cx="2.220446049250313e-16" cy="-0.7077856555647187" r="0.01"></circle><circle cx="-0.22803972009145568" cy="-0.7914732369460067" r="0.01"></circle><circle cx="-0.07308059357425256" cy="-0.8880041921604113" r="0.01"></circle></g></g><g stroke="gray" stroke-width="0.005"><g><path fill="none" d="M0.4078547111704244,-0.70823801920954 A183.15770350067763 183.15770350067763 0 0 0 0.2592500000000001 -0.44903417186223094"></path><path fill="none" d="M0.2592500000000001,-0.44903417186223094 A0.9942533630220495 0.9942533630220495 0 0 1 0.22803972009145584 -0.7914732369460065"></path><path fill="none" d="M0.4078547111704244,-0.70823801920954 A0.23472262934738058 0.23472262934738058 0 0 1 0.22803972009145584 -0.7914732369460065"></path></g><g><circle cx="0.4078547111704244" cy="-0.70823801920954" r="0.01"></circle><circle cx="0.2592500000000001" cy="-0.44903417186223094" r="0.01"></circle><circle cx="0.22803972009145584" cy="-0.7914732369460065" r="0.01"></circle></g></g><g stroke="gray" stroke-width="0.005"><g><path fill="none" d="M2.220446049250313e-16,-0.7077856555647187 A0.7050714603401439 0.7050714603401439 0 0 0 0.07308059357425267 -0.8880041921604113"></path><path fill="none" d="M0.07308059357425267,-0.8880041921604113 A0.19915615983417617 0.19915615983417617 0 0 0 0.22803972009145584 -0.7914732369460065"></path><path fill="none" d="M2.220446049250313e-16,-0.7077856555647187 A0.3525357301700712 0.3525357301700712 0 0 0 0.22803972009145584 -0.7914732369460065"></path></g><g><circle cx="2.220446049250313e-16" cy="-0.7077856555647187" r="0.01"></circle><circle cx="0.07308059357425267" cy="-0.8880041921604113" r="0.01"></circle><circle cx="0.22803972009145584" cy="-0.7914732369460065" r="0.01"></circle></g></g><g stroke="gray" stroke-width="0.005"><g><path fill="none" d="M-0.4094247609762206,0.7073315505315225 A0.23472262934738058 0.23472262934738058 0 0 0 -0.5714160695650139 0.5932248091440969"></path><path fill="none" d="M-0.5714160695650139,0.5932248091440969 A0.9942533630220484 0.9942533630220484 0 0 1 -0.25924999999999987 0.4490341718622315"></path><path fill="none" d="M-0.4094247609762206,0.7073315505315225 A183.15770350079708 183.15770350079708 0 0 1 -0.25924999999999987 0.4490341718622315"></path></g><g><circle cx="-0.4094247609762206" cy="0.7073315505315225" r="0.01"></circle><circle cx="-0.5714160695650139" cy="0.5932248091440969" r="0.01"></circle><circle cx="-0.25924999999999987" cy="0.4490341718622315" r="0.01"></circle></g></g><g stroke="gray" stroke-width="0.005"><g><path fill="none" d="M-0.612960358153269,0.3538928277823595 A0.3525357301700715 0.3525357301700715 0 0 1 -0.5714160695650139 0.5932248091440969"></path><path fill="none" d="M-0.5714160695650139,0.5932248091440969 A0.199156159834176 0.199156159834176 0 0 0 -0.7324938922908678 0.5072917466391544"></path><path fill="none" d="M-0.612960358153269,0.3538928277823595 A0.7050714603401417 0.7050714603401417 0 0 1 -0.7324938922908678 0.5072917466391544"></path></g><g><circle cx="-0.612960358153269" cy="0.3538928277823595" r="0.01"></circle><circle cx="-0.5714160695650139" cy="0.5932248091440969" r="0.01"></circle><circle cx="-0.7324938922908678" cy="0.5072917466391544" r="0.01"></circle></g></g><g stroke="gray" stroke-width="0.005"><g><path fill="none" d="M-0.8172794721466451,0.0009064686780179132 A183.15770350072896 183.15770350072896 0 0 0 -0.5184999999999996 -5.551115123125783e-17"></path><path fill="none" d="M-0.5184999999999996,-5.551115123125783e-17 A0.9942533630220494 0.9942533630220494 0 0 1 -0.7994557896564698 0.1982484278019102"></path><path fill="none" d="M-0.8172794721466451,0.0009064686780179132 A0.2347226293473806 0.2347226293473806 0 0 1 -0.7994557896564698 0.1982484278019102"></path></g><g><circle cx="-0.8172794721466451" cy="0.0009064686780179132" r="0.01"></circle><circle cx="-0.5184999999999996" cy="-5.551115123125783e-17" r="0.01"></circle><circle cx="-0.7994557896564698" cy="0.1982484278019102" r="0.01"></circle></g></g><g stroke="gray" stroke-width="0.005"><g><path fill="none" d="M-0.612960358153269,0.3538928277823595 A0.7050714603401438 0.7050714603401438 0 0 0 -0.8055744858651206 0.3807124455212574"></path><path fill="none" d="M-0.8055744858651206,0.3807124455212574 A0.19915615983417628 0.19915615983417628 0 0 0 -0.7994557896564698 0.1982484278019102"></path><path fill="none" d="M-0.612960358153269,0.3538928277823595 A0.3525357301700714 0.3525357301700714 0 0 0 -0.7994557896564698 0.1982484278019102"></path></g><g><circle cx="-0.612960358153269" cy="0.3538928277823595" r="0.01"></circle><circle cx="-0.8055744858651206" cy="0.3807124455212574" r="0.01"></circle><circle cx="-0.7994557896564698" cy="0.1982484278019102" r="0.01"></circle></g></g><g stroke="gray" stroke-width="0.005"><g><path fill="none" d="M0.8172794721466451,-0.0009064686780175801 A183.1577035008135 183.1577035008135 0 0 0 0.5185 0"></path><path fill="none" d="M0.5185,0 A0.9942533630220493 0.9942533630220493 0 0 1 0.79945578965647 -0.19824842780190988"></path><path fill="none" d="M0.8172794721466451,-0.0009064686780175801 A0.2347226293473805 0.2347226293473805 0 0 1 0.79945578965647 -0.19824842780190988"></path></g><g><circle cx="0.8172794721466451" cy="-0.0009064686780175801" r="0.01"></circle><circle cx="0.5185" cy="0" r="0.01"></circle><circle cx="0.79945578965647" cy="-0.19824842780190988" r="0.01"></circle></g></g><g stroke="gray" stroke-width="0.005"><g><path fill="none" d="M0.6129603581532692,-0.35389282778235936 A0.7050714603401416 0.7050714603401416 0 0 0 0.8055744858651207 -0.38071244552125694"></path><path fill="none" d="M0.8055744858651207,-0.38071244552125694 A0.1991561598341759 0.1991561598341759 0 0 0 0.79945578965647 -0.19824842780190988"></path><path fill="none" d="M0.6129603581532692,-0.35389282778235936 A0.35253573017007134 0.35253573017007134 0 0 0 0.79945578965647 -0.19824842780190988"></path></g><g><circle cx="0.6129603581532692" cy="-0.35389282778235936" r="0.01"></circle><circle cx="0.8055744858651207" cy="-0.38071244552125694" r="0.01"></circle><circle cx="0.79945578965647" cy="-0.19824842780190988" r="0.01"></circle></g></g><g stroke="gray" stroke-width="0.005"><g><path fill="none" d="M0.4094247609762208,-0.7073315505315223 A0.23472262934738047 0.23472262934738047 0 0 0 0.5714160695650141 -0.5932248091440966"></path><path fill="none" d="M0.5714160695650141,-0.5932248091440966 A0.9942533630220501 0.9942533630220501 0 0 1 0.25924999999999965 -0.4490341718622312"></path><path fill="none" d="M0.4094247609762208,-0.7073315505315223 A183.15770350073197 183.15770350073197 0 0 1 0.25924999999999965 -0.4490341718622312"></path></g><g><circle cx="0.4094247609762208" cy="-0.7073315505315223" r="0.01"></circle><circle cx="0.5714160695650141" cy="-0.5932248091440966" r="0.01"></circle><circle cx="0.25924999999999965" cy="-0.4490341718622312" r="0.01"></circle></g></g><g stroke="gray" stroke-width="0.005"><g><path fill="none" d="M0.6129603581532692,-0.35389282778235936 A0.3525357301700714 0.3525357301700714 0 0 1 0.5714160695650141 -0.5932248091440966"></path><path fill="none" d="M0.5714160695650141,-0.5932248091440966 A0.19915615983417637 0.19915615983417637 0 0 0 0.7324938922908681 -0.5072917466391541"></path><path fill="none" d="M0.6129603581532692,-0.35389282778235936 A0.7050714603401426 0.7050714603401426 0 0 1 0.7324938922908681 -0.5072917466391541"></path></g><g><circle cx="0.6129603581532692" cy="-0.35389282778235936" r="0.01"></circle><circle cx="0.5714160695650141" cy="-0.5932248091440966" r="0.01"></circle><circle cx="0.7324938922908681" cy="-0.5072917466391541" r="0.01"></circle></g></g><g stroke="gray" stroke-width="0.005"><g><path fill="none" d="M-0.4078547111704244,0.7082380192095401 A183.15770350084583 183.15770350084583 0 0 0 -0.25924999999999987 0.4490341718622315"></path><path fill="none" d="M-0.25924999999999987,0.4490341718622315 A0.9942533630220495 0.9942533630220495 0 0 1 -0.22803972009145568 0.7914732369460067"></path><path fill="none" d="M-0.4078547111704244,0.7082380192095401 A0.23472262934738036 0.23472262934738036 0 0 1 -0.22803972009145568 0.7914732369460067"></path></g><g><circle cx="-0.4078547111704244" cy="0.7082380192095401" r="0.01"></circle><circle cx="-0.25924999999999987" cy="0.4490341718622315" r="0.01"></circle><circle cx="-0.22803972009145568" cy="0.7914732369460067" r="0.01"></circle></g></g><g stroke="gray" stroke-width="0.005"><g><path fill="none" d="M2.220446049250313e-16,0.7077856555647187 A0.7050714603401399 0.7050714603401399 0 0 0 -0.07308059357425256 0.8880041921604113"></path><path fill="none" d="M-0.07308059357425256,0.8880041921604113 A0.199156159834176 0.199156159834176 0 0 0 -0.22803972009145568 0.7914732369460067"></path><path fill="none" d="M2.220446049250313e-16,0.7077856555647187 A0.3525357301700712 0.3525357301700712 0 0 0 -0.22803972009145568 0.7914732369460067"></path></g><g><circle cx="2.220446049250313e-16" cy="0.7077856555647187" r="0.01"></circle><circle cx="-0.07308059357425256" cy="0.8880041921604113" r="0.01"></circle><circle cx="-0.22803972009145568" cy="0.7914732369460067" r="0.01"></circle></g></g><g stroke="gray" stroke-width="0.005"><g><path fill="none" d="M0.4078547111704244,0.70823801920954 A0.23472262934738058 0.23472262934738058 0 0 0 0.22803972009145584 0.7914732369460065"></path><path fill="none" d="M0.22803972009145584,0.7914732369460065 A0.9942533630220494 0.9942533630220494 0 0 1 0.2592500000000001 0.44903417186223094"></path><path fill="none" d="M0.4078547111704244,0.70823801920954 A183.15770350067763 183.15770350067763 0 0 1 0.2592500000000001 0.44903417186223094"></path></g><g><circle cx="0.4078547111704244" cy="0.70823801920954" r="0.01"></circle><circle cx="0.22803972009145584" cy="0.7914732369460065" r="0.01"></circle><circle cx="0.2592500000000001" cy="0.44903417186223094" r="0.01"></circle></g></g><g stroke="gray" stroke-width="0.005"><g><path fill="none" d="M2.220446049250313e-16,0.7077856555647187 A0.3525357301700712 0.3525357301700712 0 0 1 0.22803972009145584 0.7914732369460065"></path><path fill="none" d="M0.22803972009145584,0.7914732369460065 A0.19915615983417634 0.19915615983417634 0 0 0 0.07308059357425267 0.8880041921604113"></path><path fill="none" d="M2.220446049250313e-16,0.7077856555647187 A0.7050714603401439 0.7050714603401439 0 0 1 0.07308059357425267 0.8880041921604113"></path></g><g><circle cx="2.220446049250313e-16" cy="0.7077856555647187" r="0.01"></circle><circle cx="0.22803972009145584" cy="0.7914732369460065" r="0.01"></circle><circle cx="0.07308059357425267" cy="0.8880041921604113" r="0.01"></circle></g></g><g stroke="gray" stroke-width="0.005"><g><path fill="none" d="M0.8172794721466451,0.0009064686780175801 A0.2347226293473805 0.2347226293473805 0 0 0 0.79945578965647 0.19824842780190988"></path><path fill="none" d="M0.79945578965647,0.19824842780190988 A0.9942533630220488 0.9942533630220488 0 0 1 0.5185 0"></path><path fill="none" d="M0.8172794721466451,0.0009064686780175801 A183.1577035008135 183.1577035008135 0 0 1 0.5185 0"></path></g><g><circle cx="0.8172794721466451" cy="0.0009064686780175801" r="0.01"></circle><circle cx="0.79945578965647" cy="0.19824842780190988" r="0.01"></circle><circle cx="0.5185" cy="0" r="0.01"></circle></g></g><g stroke="gray" stroke-width="0.005"><g><path fill="none" d="M0.6129603581532692,0.35389282778235936 A0.35253573017007134 0.35253573017007134 0 0 1 0.79945578965647 0.19824842780190988"></path><path fill="none" d="M0.79945578965647,0.19824842780190988 A0.1991561598341761 0.1991561598341761 0 0 0 0.8055744858651207 0.38071244552125694"></path><path fill="none" d="M0.6129603581532692,0.35389282778235936 A0.7050714603401416 0.7050714603401416 0 0 1 0.8055744858651207 0.38071244552125694"></path></g><g><circle cx="0.6129603581532692" cy="0.35389282778235936" r="0.01"></circle><circle cx="0.79945578965647" cy="0.19824842780190988" r="0.01"></circle><circle cx="0.8055744858651207" cy="0.38071244552125694" r="0.01"></circle></g></g><g stroke="gray" stroke-width="0.005"><g><path fill="none" d="M0.4094247609762208,0.7073315505315223 A183.15770350073197 183.15770350073197 0 0 0 0.25924999999999965 0.4490341718622312"></path><path fill="none" d="M0.25924999999999965,0.4490341718622312 A0.9942533630220496 0.9942533630220496 0 0 1 0.5714160695650141 0.5932248091440966"></path><path fill="none" d="M0.4094247609762208,0.7073315505315223 A0.23472262934738047 0.23472262934738047 0 0 1 0.5714160695650141 0.5932248091440966"></path></g><g><circle cx="0.4094247609762208" cy="0.7073315505315223" r="0.01"></circle><circle cx="0.25924999999999965" cy="0.4490341718622312" r="0.01"></circle><circle cx="0.5714160695650141" cy="0.5932248091440966" r="0.01"></circle></g></g><g stroke="gray" stroke-width="0.005"><g><path fill="none" d="M0.6129603581532692,0.35389282778235936 A0.7050714603401426 0.7050714603401426 0 0 0 0.7324938922908681 0.5072917466391541"></path><path fill="none" d="M0.7324938922908681,0.5072917466391541 A0.19915615983417634 0.19915615983417634 0 0 0 0.5714160695650141 0.5932248091440966"></path><path fill="none" d="M0.6129603581532692,0.35389282778235936 A0.3525357301700714 0.3525357301700714 0 0 0 0.5714160695650141 0.5932248091440966"></path></g><g><circle cx="0.6129603581532692" cy="0.35389282778235936" r="0.01"></circle><circle cx="0.7324938922908681" cy="0.5072917466391541" r="0.01"></circle><circle cx="0.5714160695650141" cy="0.5932248091440966" r="0.01"></circle></g></g><g stroke="gray" stroke-width="0.005"><g><path fill="none" d="M-0.6129603581532693,-0.3538928277823591 A0.35253573017007117 0.35253573017007117 0 0 0 -0.5714160695650146 -0.5932248091440964"></path><path fill="none" d="M-0.5714160695650146,-0.5932248091440964 A0.9942533630220483 0.9942533630220483 0 0 0 -0.2592500000000002 -0.44903417186223127"></path><path fill="none" d="M-0.6129603581532693,-0.3538928277823591 A0.7050714603401426 0.7050714603401426 0 0 0 -0.2592500000000002 -0.44903417186223127"></path></g><g><circle cx="-0.6129603581532693" cy="-0.3538928277823591" r="0.01"></circle><circle cx="-0.5714160695650146" cy="-0.5932248091440964" r="0.01"></circle><circle cx="-0.2592500000000002" cy="-0.44903417186223127" r="0.01"></circle></g></g><g stroke="gray" stroke-width="0.005"><g><path fill="none" d="M-0.6129603581532693,-0.3538928277823591 A0.7050714603401422 0.7050714603401422 0 0 1 -0.5185 2.7755575615628914e-16"></path><path fill="none" d="M-0.5185,2.7755575615628914e-16 A0.9942533630220488 0.9942533630220488 0 0 0 -0.79945578965647 -0.19824842780190954"></path><path fill="none" d="M-0.6129603581532693,-0.3538928277823591 A0.35253573017007117 0.35253573017007117 0 0 1 -0.79945578965647 -0.19824842780190954"></path></g><g><circle cx="-0.6129603581532693" cy="-0.3538928277823591" r="0.01"></circle><circle cx="-0.5185" cy="2.7755575615628914e-16" r="0.01"></circle><circle cx="-0.79945578965647" cy="-0.19824842780190954" r="0.01"></circle></g></g><g stroke="gray" stroke-width="0.005"><g><path fill="none" d="M2.220446049250313e-16,-0.7077856555647187 A0.7050714603401421 0.7050714603401421 0 0 1 -0.25924999999999987 -0.4490341718622315"></path><path fill="none" d="M-0.25924999999999987,-0.4490341718622315 A0.9942533630220495 0.9942533630220495 0 0 0 -0.22803972009145568 -0.7914732369460067"></path><path fill="none" d="M2.220446049250313e-16,-0.7077856555647187 A0.3525357301700712 0.3525357301700712 0 0 1 -0.22803972009145568 -0.7914732369460067"></path></g><g><circle cx="2.220446049250313e-16" cy="-0.7077856555647187" r="0.01"></circle><circle cx="-0.25924999999999987" cy="-0.4490341718622315" r="0.01"></circle><circle cx="-0.22803972009145568" cy="-0.7914732369460067" r="0.01"></circle></g></g><g stroke="gray" stroke-width="0.005"><g><path fill="none" d="M2.220446049250313e-16,-0.7077856555647187 A0.3525357301700712 0.3525357301700712 0 0 0 0.22803972009145584 -0.7914732369460065"></path><path fill="none" d="M0.22803972009145584,-0.7914732369460065 A0.9942533630220487 0.9942533630220487 0 0 0 0.2592500000000001 -0.4490341718622313"></path><path fill="none" d="M2.220446049250313e-16,-0.7077856555647187 A0.7050714603401422 0.7050714603401422 0 0 0 0.2592500000000001 -0.4490341718622313"></path></g><g><circle cx="2.220446049250313e-16" cy="-0.7077856555647187" r="0.01"></circle><circle cx="0.22803972009145584" cy="-0.7914732369460065" r="0.01"></circle><circle cx="0.2592500000000001" cy="-0.4490341718622313" r="0.01"></circle></g></g><g stroke="gray" stroke-width="0.005"><g><path fill="none" d="M-0.612960358153269,0.3538928277823595 A0.7050714603401425 0.7050714603401425 0 0 1 -0.25924999999999987 0.4490341718622315"></path><path fill="none" d="M-0.25924999999999987,0.4490341718622315 A0.9942533630220496 0.9942533630220496 0 0 0 -0.5714160695650139 0.5932248091440969"></path><path fill="none" d="M-0.612960358153269,0.3538928277823595 A0.3525357301700715 0.3525357301700715 0 0 1 -0.5714160695650139 0.5932248091440969"></path></g><g><circle cx="-0.612960358153269" cy="0.3538928277823595" r="0.01"></circle><circle cx="-0.25924999999999987" cy="0.4490341718622315" r="0.01"></circle><circle cx="-0.5714160695650139" cy="0.5932248091440969" r="0.01"></circle></g></g><g stroke="gray" stroke-width="0.005"><g><path fill="none" d="M-0.612960358153269,0.3538928277823595 A0.3525357301700714 0.3525357301700714 0 0 0 -0.7994557896564698 0.1982484278019102"></path><path fill="none" d="M-0.7994557896564698,0.1982484278019102 A0.9942533630220493 0.9942533630220493 0 0 0 -0.5185 1.6653345369377348e-16"></path><path fill="none" d="M-0.612960358153269,0.3538928277823595 A0.7050714603401422 0.7050714603401422 0 0 0 -0.5185 1.6653345369377348e-16"></path></g><g><circle cx="-0.612960358153269" cy="0.3538928277823595" r="0.01"></circle><circle cx="-0.7994557896564698" cy="0.1982484278019102" r="0.01"></circle><circle cx="-0.5185" cy="1.6653345369377348e-16" r="0.01"></circle></g></g><g stroke="gray" stroke-width="0.005"><g><path fill="none" d="M0.6129603581532692,-0.35389282778235936 A0.35253573017007134 0.35253573017007134 0 0 0 0.79945578965647 -0.19824842780190988"></path><path fill="none" d="M0.79945578965647,-0.19824842780190988 A0.9942533630220488 0.9942533630220488 0 0 0 0.5185 0"></path><path fill="none" d="M0.6129603581532692,-0.35389282778235936 A0.7050714603401422 0.7050714603401422 0 0 0 0.5185 0"></path></g><g><circle cx="0.6129603581532692" cy="-0.35389282778235936" r="0.01"></circle><circle cx="0.79945578965647" cy="-0.19824842780190988" r="0.01"></circle><circle cx="0.5185" cy="0" r="0.01"></circle></g></g><g stroke="gray" stroke-width="0.005"><g><path fill="none" d="M0.6129603581532692,-0.35389282778235936 A0.7050714603401425 0.7050714603401425 0 0 1 0.25925 -0.4490341718622314"></path><path fill="none" d="M0.25925,-0.4490341718622314 A0.9942533630220486 0.9942533630220486 0 0 0 0.5714160695650141 -0.5932248091440966"></path><path fill="none" d="M0.6129603581532692,-0.35389282778235936 A0.3525357301700714 0.3525357301700714 0 0 1 0.5714160695650141 -0.5932248091440966"></path></g><g><circle cx="0.6129603581532692" cy="-0.35389282778235936" r="0.01"></circle><circle cx="0.25925" cy="-0.4490341718622314" r="0.01"></circle><circle cx="0.5714160695650141" cy="-0.5932248091440966" r="0.01"></circle></g></g><g stroke="gray" stroke-width="0.005"><g><path fill="none" d="M2.220446049250313e-16,0.7077856555647187 A0.3525357301700712 0.3525357301700712 0 0 0 -0.22803972009145568 0.7914732369460067"></path><path fill="none" d="M-0.22803972009145568,0.7914732369460067 A0.9942533630220494 0.9942533630220494 0 0 0 -0.25924999999999987 0.4490341718622315"></path><path fill="none" d="M2.220446049250313e-16,0.7077856555647187 A0.7050714603401421 0.7050714603401421 0 0 0 -0.25924999999999987 0.4490341718622315"></path></g><g><circle cx="2.220446049250313e-16" cy="0.7077856555647187" r="0.01"></circle><circle cx="-0.22803972009145568" cy="0.7914732369460067" r="0.01"></circle><circle cx="-0.25924999999999987" cy="0.4490341718622315" r="0.01"></circle></g></g><g stroke="gray" stroke-width="0.005"><g><path fill="none" d="M2.220446049250313e-16,0.7077856555647187 A0.7050714603401422 0.7050714603401422 0 0 1 0.2592500000000001 0.4490341718622313"></path><path fill="none" d="M0.2592500000000001,0.4490341718622313 A0.9942533630220488 0.9942533630220488 0 0 0 0.22803972009145584 0.7914732369460065"></path><path fill="none" d="M2.220446049250313e-16,0.7077856555647187 A0.3525357301700712 0.3525357301700712 0 0 1 0.22803972009145584 0.7914732369460065"></path></g><g><circle cx="2.220446049250313e-16" cy="0.7077856555647187" r="0.01"></circle><circle cx="0.2592500000000001" cy="0.4490341718622313" r="0.01"></circle><circle cx="0.22803972009145584" cy="0.7914732369460065" r="0.01"></circle></g></g><g stroke="gray" stroke-width="0.005"><g><path fill="none" d="M0.6129603581532692,0.35389282778235936 A0.7050714603401422 0.7050714603401422 0 0 1 0.5185 0"></path><path fill="none" d="M0.5185,0 A0.9942533630220493 0.9942533630220493 0 0 0 0.79945578965647 0.19824842780190988"></path><path fill="none" d="M0.6129603581532692,0.35389282778235936 A0.35253573017007134 0.35253573017007134 0 0 1 0.79945578965647 0.19824842780190988"></path></g><g><circle cx="0.6129603581532692" cy="0.35389282778235936" r="0.01"></circle><circle cx="0.5185" cy="0" r="0.01"></circle><circle cx="0.79945578965647" cy="0.19824842780190988" r="0.01"></circle></g></g><g stroke="gray" stroke-width="0.005"><g><path fill="none" d="M0.6129603581532692,0.35389282778235936 A0.3525357301700714 0.3525357301700714 0 0 0 0.5714160695650141 0.5932248091440966"></path><path fill="none" d="M0.5714160695650141,0.5932248091440966 A0.9942533630220495 0.9942533630220495 0 0 0 0.25925 0.4490341718622314"></path><path fill="none" d="M0.6129603581532692,0.35389282778235936 A0.7050714603401425 0.7050714603401425 0 0 0 0.25925 0.4490341718622314"></path></g><g><circle cx="0.6129603581532692" cy="0.35389282778235936" r="0.01"></circle><circle cx="0.5714160695650141" cy="0.5932248091440966" r="0.01"></circle><circle cx="0.25925" cy="0.4490341718622314" r="0.01"></circle></g></g><g stroke="gray" stroke-width="0.005"><g><path fill="none" d="M-0.6129603581532693,-0.3538928277823591 A0.7050714603401426 0.7050714603401426 0 0 0 -0.2592500000000002 -0.44903417186223127"></path><path fill="none" d="M-0.2592500000000002,-0.44903417186223127 A0.9980807732658726 0.9980807732658726 0 0 1 -0.5185 2.7755575615628914e-16"></path><path fill="none" d="M-0.6129603581532693,-0.3538928277823591 A0.7050714603401422 0.7050714603401422 0 0 1 -0.5185 2.7755575615628914e-16"></path></g><g><circle cx="-0.6129603581532693" cy="-0.3538928277823591" r="0.01"></circle><circle cx="-0.2592500000000002" cy="-0.44903417186223127" r="0.01"></circle><circle cx="-0.5185" cy="2.7755575615628914e-16" r="0.01"></circle></g></g><g stroke="gray" stroke-width="0.005"><g><path fill="none" d="M2.220446049250313e-16,-0.7077856555647187 A0.7050714603401422 0.7050714603401422 0 0 0 0.2592500000000001 -0.4490341718622313"></path><path fill="none" d="M0.2592500000000001,-0.4490341718622313 A0.9980807732658725 0.9980807732658725 0 0 1 -0.25924999999999987 -0.4490341718622315"></path><path fill="none" d="M2.220446049250313e-16,-0.7077856555647187 A0.7050714603401421 0.7050714603401421 0 0 1 -0.25924999999999987 -0.4490341718622315"></path></g><g><circle cx="2.220446049250313e-16" cy="-0.7077856555647187" r="0.01"></circle><circle cx="0.2592500000000001" cy="-0.4490341718622313" r="0.01"></circle><circle cx="-0.25924999999999987" cy="-0.4490341718622315" r="0.01"></circle></g></g><g stroke="gray" stroke-width="0.005"><g><path fill="none" d="M-0.612960358153269,0.3538928277823595 A0.7050714603401422 0.7050714603401422 0 0 0 -0.5185 1.6653345369377348e-16"></path><path fill="none" d="M-0.5185,1.6653345369377348e-16 A0.9980807732658725 0.9980807732658725 0 0 1 -0.25924999999999987 0.4490341718622315"></path><path fill="none" d="M-0.612960358153269,0.3538928277823595 A0.7050714603401425 0.7050714603401425 0 0 1 -0.25924999999999987 0.4490341718622315"></path></g><g><circle cx="-0.612960358153269" cy="0.3538928277823595" r="0.01"></circle><circle cx="-0.5185" cy="1.6653345369377348e-16" r="0.01"></circle><circle cx="-0.25924999999999987" cy="0.4490341718622315" r="0.01"></circle></g></g><g stroke="gray" stroke-width="0.005"><g><path fill="none" d="M0.6129603581532692,-0.35389282778235936 A0.7050714603401422 0.7050714603401422 0 0 0 0.5185 0"></path><path fill="none" d="M0.5185,0 A0.9980807732658725 0.9980807732658725 0 0 1 0.25925 -0.4490341718622314"></path><path fill="none" d="M0.6129603581532692,-0.35389282778235936 A0.7050714603401425 0.7050714603401425 0 0 1 0.25925 -0.4490341718622314"></path></g><g><circle cx="0.6129603581532692" cy="-0.35389282778235936" r="0.01"></circle><circle cx="0.5185" cy="0" r="0.01"></circle><circle cx="0.25925" cy="-0.4490341718622314" r="0.01"></circle></g></g><g stroke="gray" stroke-width="0.005"><g><path fill="none" d="M2.220446049250313e-16,0.7077856555647187 A0.7050714603401421 0.7050714603401421 0 0 0 -0.25924999999999987 0.4490341718622315"></path><path fill="none" d="M-0.25924999999999987,0.4490341718622315 A0.998080773265873 0.998080773265873 0 0 1 0.2592500000000001 0.4490341718622313"></path><path fill="none" d="M2.220446049250313e-16,0.7077856555647187 A0.7050714603401422 0.7050714603401422 0 0 1 0.2592500000000001 0.4490341718622313"></path></g><g><circle cx="2.220446049250313e-16" cy="0.7077856555647187" r="0.01"></circle><circle cx="-0.25924999999999987" cy="0.4490341718622315" r="0.01"></circle><circle cx="0.2592500000000001" cy="0.4490341718622313" r="0.01"></circle></g></g><g stroke="gray" stroke-width="0.005"><g><path fill="none" d="M0.6129603581532692,0.35389282778235936 A0.7050714603401425 0.7050714603401425 0 0 0 0.25925 0.4490341718622314"></path><path fill="none" d="M0.25925,0.4490341718622314 A0.9980807732658725 0.9980807732658725 0 0 1 0.5185 0"></path><path fill="none" d="M0.6129603581532692,0.35389282778235936 A0.7050714603401422 0.7050714603401422 0 0 1 0.5185 0"></path></g><g><circle cx="0.6129603581532692" cy="0.35389282778235936" r="0.01"></circle><circle cx="0.25925" cy="0.4490341718622314" r="0.01"></circle><circle cx="0.5185" cy="0" r="0.01"></circle></g></g><g stroke="gray" stroke-width="0.005"><g><line x1="0" y1="0" x2="-0.5185" y2="2.220446049250313e-16"></line><path fill="none" d="M-0.5185,2.220446049250313e-16 A0.9980807732658722 0.9980807732658722 0 0 0 -0.2592500000000002 -0.44903417186223127"></path><line x1="0" y1="0" x2="-0.2592500000000002" y2="-0.44903417186223127"></line></g><g><circle cx="0" cy="0" r="0.01"></circle><circle cx="-0.5185" cy="2.220446049250313e-16" r="0.01"></circle><circle cx="-0.2592500000000002" cy="-0.44903417186223127" r="0.01"></circle></g></g><g stroke="gray" stroke-width="0.005"><g><line x1="0" y1="0" x2="-0.25924999999999987" y2="-0.4490341718622315"></line><path fill="none" d="M-0.25924999999999987,-0.4490341718622315 A0.9980807732658727 0.9980807732658727 0 0 0 0.25925000000000004 -0.4490341718622314"></path><line x1="0" y1="0" x2="0.25925000000000004" y2="-0.4490341718622314"></line></g><g><circle cx="0" cy="0" r="0.01"></circle><circle cx="-0.25924999999999987" cy="-0.4490341718622315" r="0.01"></circle><circle cx="0.25925000000000004" cy="-0.4490341718622314" r="0.01"></circle></g></g><g stroke="gray" stroke-width="0.005"><g><line x1="0" y1="0" x2="-0.25924999999999987" y2="0.4490341718622315"></line><path fill="none" d="M-0.25924999999999987,0.4490341718622315 A0.9980807732658725 0.9980807732658725 0 0 0 -0.5185 2.220446049250313e-16"></path><line x1="0" y1="0" x2="-0.5185" y2="2.220446049250313e-16"></line></g><g><circle cx="0" cy="0" r="0.01"></circle><circle cx="-0.25924999999999987" cy="0.4490341718622315" r="0.01"></circle><circle cx="-0.5185" cy="2.220446049250313e-16" r="0.01"></circle></g></g><g stroke="gray" stroke-width="0.005"><g><line x1="0" y1="0" x2="0.25925000000000004" y2="-0.4490341718622314"></line><path fill="none" d="M0.25925000000000004,-0.4490341718622314 A0.9980807732658725 0.9980807732658725 0 0 0 0.5185 0"></path><line x1="0" y1="0" x2="0.5185" y2="0"></line></g><g><circle cx="0" cy="0" r="0.01"></circle><circle cx="0.25925000000000004" cy="-0.4490341718622314" r="0.01"></circle><circle cx="0.5185" cy="0" r="0.01"></circle></g></g><g stroke="gray" stroke-width="0.005"><g><line x1="0" y1="0" x2="0.25925000000000004" y2="0.4490341718622314"></line><path fill="none" d="M0.25925000000000004,0.4490341718622314 A0.9980807732658721 0.9980807732658721 0 0 0 -0.25924999999999987 0.4490341718622315"></path><line x1="0" y1="0" x2="-0.25924999999999987" y2="0.4490341718622315"></line></g><g><circle cx="0" cy="0" r="0.01"></circle><circle cx="0.25925000000000004" cy="0.4490341718622314" r="0.01"></circle><circle cx="-0.25924999999999987" cy="0.4490341718622315" r="0.01"></circle></g></g><g stroke="gray" stroke-width="0.005"><g><line x1="0" y1="0" x2="0.5185" y2="0"></line><path fill="none" d="M0.5185,0 A0.9980807732658725 0.9980807732658725 0 0 0 0.25925000000000004 0.4490341718622314"></path><line x1="0" y1="0" x2="0.25925000000000004" y2="0.4490341718622314"></line></g><g><circle cx="0" cy="0" r="0.01"></circle><circle cx="0.5185" cy="0" r="0.01"></circle><circle cx="0.25925000000000004" cy="0.4490341718622314" r="0.01"></circle></g></g></g></svg>