<svg width="640" height="640" viewBox="-1.005 -1.005 2.01 2.01"><circle cx="0" cy="0" r="1" fill="none" stroke="gray" stroke-width="0.001"></circle><g stroke-width="0.01"><g stroke="gray" stroke-width="0.005"><g><path fill="none" d="M-0.3837953091684438,-0.7016836960300356 A9.757219549304626 9.757219549304626 0 0 1 -0.2500000000000002 -0.4330127018922192"></path><path fill="none" d="M-0.2500000000000002,-0.4330127018922192 A1.127569083044155 1.127569083044155 0 0 1 -0.553571428571429 -0.5876600954251546"></path><path fill="none" d="M-0.3837953091684438,-0.7016836960300356 A0.25676893550801766 0.25676893550801766 0 0 1 -0.553571428571429 -0.5876600954251546"></path></g><g><circle cx="-0.3837953091684438" cy="-0.7016836960300356" r="0.01"></circle><circle cx="-0.2500000000000002" cy="-0.4330127018922192" r="0.01"></circle><circle cx="-0.553571428571429" cy="-0.5876600954251546" r="0.01"></circle></g></g><g stroke="gray" stroke-width="0.005"><g><path fill="none" d="M-0.6000000000000001,-0.3464101615137752 A0.7505553499465134 0.7505553499465134 0 0 0 -0.7209302325581397 -0.5035031417351385"></path><path fill="none" d="M-0.7209302325581397,-0.5035031417351385 A0.21823917736338458 0.21823917736338458 0 0 0 -0.553571428571429 -0.5876600954251546"></path><path fill="none" d="M-0.6000000000000001,-0.3464101615137752 A0.3752776749732569 0.3752776749732569 0 0 0 -0.553571428571429 -0.5876600954251546"></path></g><g><circle cx="-0.6000000000000001" cy="-0.3464101615137752" r="0.01"></circle><circle cx="-0.7209302325581397" cy="-0.5035031417351385" r="0.01"></circle><circle cx="-0.553571428571429" cy="-0.5876600954251546" r="0.01"></circle></g></g><g stroke="gray" stroke-width="0.005"><g><path fill="none" d="M-0.7995735607675905,0.018465360421843324 A0.2567689355080179 0.2567689355080179 0 0 0 -0.7857142857142856 -0.18557687223952202"></path><path fill="none" d="M-0.7857142857142856,-0.18557687223952202 A1.1275690830441556 1.1275690830441556 0 0 1 -0.5 1.6653345369377348e-16"></path><path fill="none" d="M-0.7995735607675905,0.018465360421843324 A9.757219549304661 9.757219549304661 0 0 0 -0.5 1.6653345369377348e-16"></path></g><g><circle cx="-0.7995735607675905" cy="0.018465360421843324" r="0.01"></circle><circle cx="-0.7857142857142856" cy="-0.18557687223952202" r="0.01"></circle><circle cx="-0.5" cy="1.6653345369377348e-16" r="0.01"></circle></g></g><g stroke="gray" stroke-width="0.005"><g><path fill="none" d="M-0.6000000000000001,-0.3464101615137752 A0.3752776749732568 0.3752776749732568 0 0 1 -0.7857142857142856 -0.18557687223952202"></path><path fill="none" d="M-0.7857142857142856,-0.18557687223952202 A0.21823917736338505 0.21823917736338505 0 0 0 -0.7965116279069768 -0.3725923248840022"></path><path fill="none" d="M-0.6000000000000001,-0.3464101615137752 A0.7505553499465127 0.7505553499465127 0 0 1 -0.7965116279069768 -0.3725923248840022"></path></g><g><circle cx="-0.6000000000000001" cy="-0.3464101615137752" r="0.01"></circle><circle cx="-0.7857142857142856" cy="-0.18557687223952202" r="0.01"></circle><circle cx="-0.7965116279069768" cy="-0.3725923248840022" r="0.01"></circle></g></g><g stroke="gray" stroke-width="0.005"><g><path fill="none" d="M-0.41577825159914705,-0.6832183356081927 A0.25676893550801794 0.25676893550801794 0 0 0 -0.23214285714285698 -0.7732369676646775"></path><path fill="none" d="M-0.23214285714285698,-0.7732369676646775 A1.1275690830441556 1.1275690830441556 0 0 1 -0.2499999999999999 -0.4330127018922194"></path><path fill="none" d="M-0.41577825159914705,-0.6832183356081927 A9.75721954930459 9.75721954930459 0 0 0 -0.2499999999999999 -0.4330127018922194"></path></g><g><circle cx="-0.41577825159914705" cy="-0.6832183356081927" r="0.01"></circle><circle cx="-0.23214285714285698" cy="-0.7732369676646775" r="0.01"></circle><circle cx="-0.2499999999999999" cy="-0.4330127018922194" r="0.01"></circle></g></g><g stroke="gray" stroke-width="0.005"><g><path fill="none" d="M2.220446049250313e-16,-0.6928203230275509 A0.3752776749732567 0.3752776749732567 0 0 1 -0.23214285714285698 -0.7732369676646775"></path><path fill="none" d="M-0.23214285714285698,-0.7732369676646775 A0.2182391773633846 0.2182391773633846 0 0 0 -0.07558139534883712 -0.8760954666191414"></path><path fill="none" d="M2.220446049250313e-16,-0.6928203230275509 A0.7505553499465115 0.7505553499465115 0 0 1 -0.07558139534883712 -0.8760954666191414"></path></g><g><circle cx="2.220446049250313e-16" cy="-0.6928203230275509" r="0.01"></circle><circle cx="-0.23214285714285698" cy="-0.7732369676646775" r="0.01"></circle><circle cx="-0.07558139534883712" cy="-0.8760954666191414" r="0.01"></circle></g></g><g stroke="gray" stroke-width="0.005"><g><path fill="none" d="M0.4157782515991472,-0.6832183356081925 A9.757219549304635 9.757219549304635 0 0 1 0.25 -0.4330127018922193"></path><path fill="none" d="M0.25,-0.4330127018922193 A1.127569083044157 1.127569083044157 0 0 1 0.23214285714285737 -0.7732369676646771"></path><path fill="none" d="M0.4157782515991472,-0.6832183356081925 A0.25676893550801794 0.25676893550801794 0 0 1 0.23214285714285737 -0.7732369676646771"></path></g><g><circle cx="0.4157782515991472" cy="-0.6832183356081925" r="0.01"></circle><circle cx="0.25" cy="-0.4330127018922193" r="0.01"></circle><circle cx="0.23214285714285737" cy="-0.7732369676646771" r="0.01"></circle></g></g><g stroke="gray" stroke-width="0.005"><g><path fill="none" d="M2.220446049250313e-16,-0.6928203230275509 A0.7505553499465135 0.7505553499465135 0 0 0 0.07558139534883745 -0.8760954666191413"></path><path fill="none" d="M0.07558139534883745,-0.8760954666191413 A0.21823917736338497 0.21823917736338497 0 0 0 0.23214285714285737 -0.7732369676646771"></path><path fill="none" d="M2.220446049250313e-16,-0.6928203230275509 A0.3752776749732567 0.3752776749732567 0 0 0 0.23214285714285737 -0.7732369676646771"></path></g><g><circle cx="2.220446049250313e-16" cy="-0.6928203230275509" r="0.01"></circle><circle cx="0.07558139534883745" cy="-0.8760954666191413" r="0.01"></circle><circle cx="0.23214285714285737" cy="-0.7732369676646771" r="0.01"></circle></g></g><g stroke="gray" stroke-width="0.005"><g><path fill="none" d="M-0.3837953091684434,0.7016836960300357 A0.25676893550801766 0.25676893550801766 0 0 0 -0.5535714285714286 0.5876600954251551"></path><path fill="none" d="M-0.5535714285714286,0.5876600954251551 A1.1275690830441552 1.1275690830441552 0 0 1 -0.2499999999999999 0.4330127018922194"></path><path fill="none" d="M-0.3837953091684434,0.7016836960300357 A9.757219549304756 9.757219549304756 0 0 0 -0.2499999999999999 0.4330127018922194"></path></g><g><circle cx="-0.3837953091684434" cy="0.7016836960300357" r="0.01"></circle><circle cx="-0.5535714285714286" cy="0.5876600954251551" r="0.01"></circle><circle cx="-0.2499999999999999" cy="0.4330127018922194" r="0.01"></circle></g></g><g stroke="gray" stroke-width="0.005"><g><path fill="none" d="M-0.6,0.34641016151377557 A0.3752776749732565 0.3752776749732565 0 0 1 -0.5535714285714286 0.5876600954251551"></path><path fill="none" d="M-0.5535714285714286,0.5876600954251551 A0.21823917736338475 0.21823917736338475 0 0 0 -0.7209302325581393 0.503503141735139"></path><path fill="none" d="M-0.6,0.34641016151377557 A0.750555349946511 0.750555349946511 0 0 1 -0.7209302325581393 0.503503141735139"></path></g><g><circle cx="-0.6" cy="0.34641016151377557" r="0.01"></circle><circle cx="-0.5535714285714286" cy="0.5876600954251551" r="0.01"></circle><circle cx="-0.7209302325581393" cy="0.503503141735139" r="0.01"></circle></g></g><g stroke="gray" stroke-width="0.005"><g><path fill="none" d="M-0.7995735607675906,-0.01846536042184288 A9.757219549304525 9.757219549304525 0 0 1 -0.5 2.7755575615628914e-16"></path><path fill="none" d="M-0.5,2.7755575615628914e-16 A1.1275690830441563 1.1275690830441563 0 0 1 -0.7857142857142856 0.18557687223952268"></path><path fill="none" d="M-0.7995735607675906,-0.01846536042184288 A0.2567689355080179 0.2567689355080179 0 0 1 -0.7857142857142856 0.18557687223952268"></path></g><g><circle cx="-0.7995735607675906" cy="-0.01846536042184288" r="0.01"></circle><circle cx="-0.5" cy="2.7755575615628914e-16" r="0.01"></circle><circle cx="-0.7857142857142856" cy="0.18557687223952268" r="0.01"></circle></g></g><g stroke="gray" stroke-width="0.005"><g><path fill="none" d="M-0.6,0.34641016151377557 A0.7505553499465134 0.7505553499465134 0 0 0 -0.7965116279069767 0.37259232488400285"></path><path fill="none" d="M-0.7965116279069767,0.37259232488400285 A0.218239177363385 0.218239177363385 0 0 0 -0.7857142857142856 0.18557687223952268"></path><path fill="none" d="M-0.6,0.34641016151377557 A0.3752776749732564 0.3752776749732564 0 0 0 -0.7857142857142856 0.18557687223952268"></path></g><g><circle cx="-0.6" cy="0.34641016151377557" r="0.01"></circle><circle cx="-0.7965116279069767" cy="0.37259232488400285" r="0.01"></circle><circle cx="-0.7857142857142856" cy="0.18557687223952268" r="0.01"></circle></g></g><g stroke="gray" stroke-width="0.005"><g><path fill="none" d="M0.7995735607675907,0.01846536042184299 A9.757219549304708 9.757219549304708 0 0 1 0.5 0"></path><path fill="none" d="M0.5,0 A1.127569083044155 1.127569083044155 0 0 1 0.7857142857142858 -0.18557687223952268"></path><path fill="none" d="M0.7995735607675907,0.01846536042184299 A0.25676893550801794 0.25676893550801794 0 0 1 0.7857142857142858 -0.18557687223952268"></path></g><g><circle cx="0.7995735607675907" cy="0.01846536042184299" r="0.01"></circle><circle cx="0.5" cy="0" r="0.01"></circle><circle cx="0.7857142857142858" cy="-0.18557687223952268" r="0.01"></circle></g></g><g stroke="gray" stroke-width="0.005"><g><path fill="none" d="M0.6,-0.34641016151377546 A0.7505553499465129 0.7505553499465129 0 0 0 0.7965116279069766 -0.37259232488400257"></path><path fill="none" d="M0.7965116279069766,-0.37259232488400257 A0.21823917736338477 0.21823917736338477 0 0 0 0.7857142857142858 -0.18557687223952268"></path><path fill="none" d="M0.6,-0.34641016151377546 A0.3752776749732567 0.3752776749732567 0 0 0 0.7857142857142858 -0.18557687223952268"></path></g><g><circle cx="0.6" cy="-0.34641016151377546" r="0.01"></circle><circle cx="0.7965116279069766" cy="-0.37259232488400257" r="0.01"></circle><circle cx="0.7857142857142858" cy="-0.18557687223952268" r="0.01"></circle></g></g><g stroke="gray" stroke-width="0.005"><g><path fill="none" d="M0.3837953091684435,-0.7016836960300356 A0.2567689355080179 0.2567689355080179 0 0 0 0.5535714285714284 -0.5876600954251547"></path><path fill="none" d="M0.5535714285714284,-0.5876600954251547 A1.1275690830441567 1.1275690830441567 0 0 1 0.2500000000000001 -0.43301270189221924"></path><path fill="none" d="M0.3837953091684435,-0.7016836960300356 A9.75721954930456 9.75721954930456 0 0 0 0.2500000000000001 -0.43301270189221924"></path></g><g><circle cx="0.3837953091684435" cy="-0.7016836960300356" r="0.01"></circle><circle cx="0.5535714285714284" cy="-0.5876600954251547" r="0.01"></circle><circle cx="0.2500000000000001" cy="-0.43301270189221924" r="0.01"></circle></g></g><g stroke="gray" stroke-width="0.005"><g><path fill="none" d="M0.6,-0.34641016151377546 A0.37527767497325654 0.37527767497325654 0 0 1 0.5535714285714284 -0.5876600954251547"></path><path fill="none" d="M0.5535714285714284,-0.5876600954251547 A0.2182391773633852 0.2182391773633852 0 0 0 0.7209302325581394 -0.5035031417351388"></path><path fill="none" d="M0.6,-0.34641016151377546 A0.7505553499465121 0.7505553499465121 0 0 1 0.7209302325581394 -0.5035031417351388"></path></g><g><circle cx="0.6" cy="-0.34641016151377546" r="0.01"></circle><circle cx="0.5535714285714284" cy="-0.5876600954251547" r="0.01"></circle><circle cx="0.7209302325581394" cy="-0.5035031417351388" r="0.01"></circle></g></g><g stroke="gray" stroke-width="0.005"><g><path fill="none" d="M-0.41577825159914705,0.6832183356081927 A9.75721954930459 9.75721954930459 0 0 1 -0.2499999999999999 0.4330127018922194"></path><path fill="none" d="M-0.2499999999999999,0.4330127018922194 A1.1275690830441556 1.1275690830441556 0 0 1 -0.23214285714285698 0.7732369676646775"></path><path fill="none" d="M-0.41577825159914705,0.6832183356081927 A0.25676893550801794 0.25676893550801794 0 0 1 -0.23214285714285698 0.7732369676646775"></path></g><g><circle cx="-0.41577825159914705" cy="0.6832183356081927" r="0.01"></circle><circle cx="-0.2499999999999999" cy="0.4330127018922194" r="0.01"></circle><circle cx="-0.23214285714285698" cy="0.7732369676646775" r="0.01"></circle></g></g><g stroke="gray" stroke-width="0.005"><g><path fill="none" d="M2.220446049250313e-16,0.6928203230275509 A0.7505553499465115 0.7505553499465115 0 0 0 -0.07558139534883712 0.8760954666191414"></path><path fill="none" d="M-0.07558139534883712,0.8760954666191414 A0.2182391773633846 0.2182391773633846 0 0 0 -0.23214285714285698 0.7732369676646775"></path><path fill="none" d="M2.220446049250313e-16,0.6928203230275509 A0.3752776749732567 0.3752776749732567 0 0 0 -0.23214285714285698 0.7732369676646775"></path></g><g><circle cx="2.220446049250313e-16" cy="0.6928203230275509" r="0.01"></circle><circle cx="-0.07558139534883712" cy="0.8760954666191414" r="0.01"></circle><circle cx="-0.23214285714285698" cy="0.7732369676646775" r="0.01"></circle></g></g><g stroke="gray" stroke-width="0.005"><g><path fill="none" d="M0.4157782515991472,0.6832183356081925 A0.25676893550801794 0.25676893550801794 0 0 0 0.23214285714285737 0.7732369676646771"></path><path fill="none" d="M0.23214285714285737,0.7732369676646771 A1.1275690830441565 1.1275690830441565 0 0 1 0.25 0.4330127018922193"></path><path fill="none" d="M0.4157782515991472,0.6832183356081925 A9.757219549304635 9.757219549304635 0 0 0 0.25 0.4330127018922193"></path></g><g><circle cx="0.4157782515991472" cy="0.6832183356081925" r="0.01"></circle><circle cx="0.23214285714285737" cy="0.7732369676646771" r="0.01"></circle><circle cx="0.25" cy="0.4330127018922193" r="0.01"></circle></g></g><g stroke="gray" stroke-width="0.005"><g><path fill="none" d="M2.220446049250313e-16,0.6928203230275509 A0.3752776749732567 0.3752776749732567 0 0 1 0.23214285714285737 0.7732369676646771"></path><path fill="none" d="M0.23214285714285737,0.7732369676646771 A0.2182391773633851 0.2182391773633851 0 0 0 0.07558139534883745 0.8760954666191413"></path><path fill="none" d="M2.220446049250313e-16,0.6928203230275509 A0.7505553499465135 0.7505553499465135 0 0 1 0.07558139534883745 0.8760954666191413"></path></g><g><circle cx="2.220446049250313e-16" cy="0.6928203230275509" r="0.01"></circle><circle cx="0.23214285714285737" cy="0.7732369676646771" r="0.01"></circle><circle cx="0.07558139534883745" cy="0.8760954666191413" r="0.01"></circle></g></g><g stroke="gray" stroke-width="0.005"><g><path fill="none" d="M0.7995735607675907,-0.01846536042184299 A0.25676893550801794 0.25676893550801794 0 0 0 0.7857142857142858 0.18557687223952268"></path><path fill="none" d="M0.7857142857142858,0.18557687223952268 A1.1275690830441545 1.1275690830441545 0 0 1 0.5 0"></path><path fill="none" d="M0.7995735607675907,-0.01846536042184299 A9.757219549304708 9.757219549304708 0 0 0 0.5 0"></path></g><g><circle cx="0.7995735607675907" cy="-0.01846536042184299" r="0.01"></circle><circle cx="0.7857142857142858" cy="0.18557687223952268" r="0.01"></circle><circle cx="0.5" cy="0" r="0.01"></circle></g></g><g stroke="gray" stroke-width="0.005"><g><path fill="none" d="M0.6,0.34641016151377546 A0.3752776749732567 0.3752776749732567 0 0 1 0.7857142857142858 0.18557687223952268"></path><path fill="none" d="M0.7857142857142858,0.18557687223952268 A0.21823917736338455 0.21823917736338455 0 0 0 0.7965116279069766 0.37259232488400257"></path><path fill="none" d="M0.6,0.34641016151377546 A0.7505553499465129 0.7505553499465129 0 0 1 0.7965116279069766 0.37259232488400257"></path></g><g><circle cx="0.6" cy="0.34641016151377546" r="0.01"></circle><circle cx="0.7857142857142858" cy="0.18557687223952268" r="0.01"></circle><circle cx="0.7965116279069766" cy="0.37259232488400257" r="0.01"></circle></g></g><g stroke="gray" stroke-width="0.005"><g><path fill="none" d="M0.3837953091684435,0.7016836960300356 A9.75721954930456 9.75721954930456 0 0 1 0.2500000000000001 0.43301270189221924"></path><path fill="none" d="M0.2500000000000001,0.43301270189221924 A1.1275690830441574 1.1275690830441574 0 0 1 0.5535714285714284 0.5876600954251547"></path><path fill="none" d="M0.3837953091684435,0.7016836960300356 A0.2567689355080179 0.2567689355080179 0 0 1 0.5535714285714284 0.5876600954251547"></path></g><g><circle cx="0.3837953091684435" cy="0.7016836960300356" r="0.01"></circle><circle cx="0.2500000000000001" cy="0.43301270189221924" r="0.01"></circle><circle cx="0.5535714285714284" cy="0.5876600954251547" r="0.01"></circle></g></g><g stroke="gray" stroke-width="0.005"><g><path fill="none" d="M0.6,0.34641016151377546 A0.7505553499465121 0.7505553499465121 0 0 0 0.7209302325581394 0.5035031417351388"></path><path fill="none" d="M0.7209302325581394,0.5035031417351388 A0.21823917736338494 0.21823917736338494 0 0 0 0.5535714285714284 0.5876600954251547"></path><path fill="none" d="M0.6,0.34641016151377546 A0.37527767497325654 0.37527767497325654 0 0 0 0.5535714285714284 0.5876600954251547"></path></g><g><circle cx="0.6" cy="0.34641016151377546" r="0.01"></circle><circle cx="0.7209302325581394" cy="0.5035031417351388" r="0.01"></circle><circle cx="0.5535714285714284" cy="0.5876600954251547" r="0.01"></circle></g></g><g stroke="gray" stroke-width="0.005"><g><path fill="none" d="M-0.6000000000000001,-0.3464101615137752 A0.3752776749732569 0.3752776749732569 0 0 0 -0.553571428571429 -0.5876600954251546"></path><path fill="none" d="M-0.553571428571429,-0.5876600954251546 A1.1275690830441554 1.1275690830441554 0 0 0 -0.2500000000000002 -0.4330127018922192"></path><path fill="none" d="M-0.6000000000000001,-0.3464101615137752 A0.7505553499465136 0.7505553499465136 0 0 0 -0.2500000000000002 -0.4330127018922192"></path></g><g><circle cx="-0.6000000000000001" cy="-0.3464101615137752" r="0.01"></circle><circle cx="-0.553571428571429" cy="-0.5876600954251546" r="0.01"></circle><circle cx="-0.2500000000000002" cy="-0.4330127018922192" r="0.01"></circle></g></g><g stroke="gray" stroke-width="0.005"><g><path fill="none" d="M-0.6000000000000001,-0.3464101615137752 A0.7505553499465135 0.7505553499465135 0 0 1 -0.5 2.7755575615628914e-16"></path><path fill="none" d="M-0.5,2.7755575615628914e-16 A1.1275690830441556 1.1275690830441556 0 0 0 -0.7857142857142856 -0.18557687223952202"></path><path fill="none" d="M-0.6000000000000001,-0.3464101615137752 A0.3752776749732568 0.3752776749732568 0 0 1 -0.7857142857142856 -0.18557687223952202"></path></g><g><circle cx="-0.6000000000000001" cy="-0.3464101615137752" r="0.01"></circle><circle cx="-0.5" cy="2.7755575615628914e-16" r="0.01"></circle><circle cx="-0.7857142857142856" cy="-0.18557687223952202" r="0.01"></circle></g></g><g stroke="gray" stroke-width="0.005"><g><path fill="none" d="M2.220446049250313e-16,-0.6928203230275509 A0.7505553499465132 0.7505553499465132 0 0 1 -0.2499999999999999 -0.4330127018922194"></path><path fill="none" d="M-0.2499999999999999,-0.4330127018922194 A1.1275690830441556 1.1275690830441556 0 0 0 -0.23214285714285698 -0.7732369676646775"></path><path fill="none" d="M2.220446049250313e-16,-0.6928203230275509 A0.3752776749732567 0.3752776749732567 0 0 1 -0.23214285714285698 -0.7732369676646775"></path></g><g><circle cx="2.220446049250313e-16" cy="-0.6928203230275509" r="0.01"></circle><circle cx="-0.2499999999999999" cy="-0.4330127018922194" r="0.01"></circle><circle cx="-0.23214285714285698" cy="-0.7732369676646775" r="0.01"></circle></g></g><g stroke="gray" stroke-width="0.005"><g><path fill="none" d="M2.220446049250313e-16,-0.6928203230275509 A0.3752776749732567 0.3752776749732567 0 0 0 0.23214285714285737 -0.7732369676646771"></path><path fill="none" d="M0.23214285714285737,-0.7732369676646771 A1.1275690830441556 1.1275690830441556 0 0 0 0.2500000000000001 -0.43301270189221924"></path><path fill="none" d="M2.220446049250313e-16,-0.6928203230275509 A0.7505553499465139 0.7505553499465139 0 0 0 0.2500000000000001 -0.43301270189221924"></path></g><g><circle cx="2.220446049250313e-16" cy="-0.6928203230275509" r="0.01"></circle><circle cx="0.23214285714285737" cy="-0.7732369676646771" r="0.01"></circle><circle cx="0.2500000000000001" cy="-0.43301270189221924" r="0.01"></circle></g></g><g stroke="gray" stroke-width="0.005"><g><path fill="none" d="M-0.6,0.34641016151377557 A0.7505553499465132 0.7505553499465132 0 0 1 -0.2499999999999999 0.4330127018922194"></path><path fill="none" d="M-0.2499999999999999,0.4330127018922194 A1.1275690830441554 1.1275690830441554 0 0 0 -0.5535714285714286 0.5876600954251551"></path><path fill="none" d="M-0.6,0.34641016151377557 A0.3752776749732565 0.3752776749732565 0 0 1 -0.5535714285714286 0.5876600954251551"></path></g><g><circle cx="-0.6" cy="0.34641016151377557" r="0.01"></circle><circle cx="-0.2499999999999999" cy="0.4330127018922194" r="0.01"></circle><circle cx="-0.5535714285714286" cy="0.5876600954251551" r="0.01"></circle></g></g><g stroke="gray" stroke-width="0.005"><g><path fill="none" d="M-0.6,0.34641016151377557 A0.3752776749732564 0.3752776749732564 0 0 0 -0.7857142857142856 0.18557687223952268"></path><path fill="none" d="M-0.7857142857142856,0.18557687223952268 A1.1275690830441556 1.1275690830441556 0 0 0 -0.5 1.6653345369377348e-16"></path><path fill="none" d="M-0.6,0.34641016151377557 A0.7505553499465133 0.7505553499465133 0 0 0 -0.5 1.6653345369377348e-16"></path></g><g><circle cx="-0.6" cy="0.34641016151377557" r="0.01"></circle><circle cx="-0.7857142857142856" cy="0.18557687223952268" r="0.01"></circle><circle cx="-0.5" cy="1.6653345369377348e-16" r="0.01"></circle></g></g><g stroke="gray" stroke-width="0.005"><g><path fill="none" d="M0.6,-0.34641016151377546 A0.3752776749732567 0.3752776749732567 0 0 0 0.7857142857142858 -0.18557687223952268"></path><path fill="none" d="M0.7857142857142858,-0.18557687223952268 A1.1275690830441545 1.1275690830441545 0 0 0 0.5 0"></path><path fill="none" d="M0.6,-0.34641016151377546 A0.7505553499465131 0.7505553499465131 0 0 0 0.5 0"></path></g><g><circle cx="0.6" cy="-0.34641016151377546" r="0.01"></circle><circle cx="0.7857142857142858" cy="-0.18557687223952268" r="0.01"></circle><circle cx="0.5" cy="0" r="0.01"></circle></g></g><g stroke="gray" stroke-width="0.005"><g><path fill="none" d="M0.6,-0.34641016151377546 A0.7505553499465135 0.7505553499465135 0 0 1 0.25 -0.4330127018922193"></path><path fill="none" d="M0.25,-0.4330127018922193 A1.1275690830441567 1.1275690830441567 0 0 0 0.5535714285714284 -0.5876600954251547"></path><path fill="none" d="M0.6,-0.34641016151377546 A0.37527767497325654 0.37527767497325654 0 0 1 0.5535714285714284 -0.5876600954251547"></path></g><g><circle cx="0.6" cy="-0.34641016151377546" r="0.01"></circle><circle cx="0.25" cy="-0.4330127018922193" r="0.01"></circle><circle cx="0.5535714285714284" cy="-0.5876600954251547" r="0.01"></circle></g></g><g stroke="gray" stroke-width="0.005"><g><path fill="none" d="M2.220446049250313e-16,0.6928203230275509 A0.3752776749732567 0.3752776749732567 0 0 0 -0.23214285714285698 0.7732369676646775"></path><path fill="none" d="M-0.23214285714285698,0.7732369676646775 A1.1275690830441556 1.1275690830441556 0 0 0 -0.2499999999999999 0.4330127018922194"></path><path fill="none" d="M2.220446049250313e-16,0.6928203230275509 A0.7505553499465132 0.7505553499465132 0 0 0 -0.2499999999999999 0.4330127018922194"></path></g><g><circle cx="2.220446049250313e-16" cy="0.6928203230275509" r="0.01"></circle><circle cx="-0.23214285714285698" cy="0.7732369676646775" r="0.01"></circle><circle cx="-0.2499999999999999" cy="0.4330127018922194" r="0.01"></circle></g></g><g stroke="gray" stroke-width="0.005"><g><path fill="none" d="M2.220446049250313e-16,0.6928203230275509 A0.7505553499465139 0.7505553499465139 0 0 1 0.2500000000000001 0.43301270189221924"></path><path fill="none" d="M0.2500000000000001,0.43301270189221924 A1.1275690830441563 1.1275690830441563 0 0 0 0.23214285714285737 0.7732369676646771"></path><path fill="none" d="M2.220446049250313e-16,0.6928203230275509 A0.3752776749732567 0.3752776749732567 0 0 1 0.23214285714285737 0.7732369676646771"></path></g><g><circle cx="2.220446049250313e-16" cy="0.6928203230275509" r="0.01"></circle><circle cx="0.2500000000000001" cy="0.43301270189221924" r="0.01"></circle><circle cx="0.23214285714285737" cy="0.7732369676646771" r="0.01"></circle></g></g><g stroke="gray" stroke-width="0.005"><g><path fill="none" d="M0.6,0.34641016151377546 A0.7505553499465131 0.7505553499465131 0 0 1 0.5 0"></path><path fill="none" d="M0.5,0 A1.127569083044155 1.127569083044155 0 0 0 0.7857142857142858 0.18557687223952268"></path><path fill="none" d="M0.6,0.34641016151377546 A0.3752776749732567 0.3752776749732567 0 0 1 0.7857142857142858 0.18557687223952268"></path></g><g><circle cx="0.6" cy="0.34641016151377546" r="0.01"></circle><circle cx="0.5" cy="0" r="0.01"></circle><circle cx="0.7857142857142858" cy="0.18557687223952268" r="0.01"></circle></g></g><g stroke="gray" stroke-width="0.005"><g><path fill="none" d="M0.6,0.34641016151377546 A0.37527767497325654 0.37527767497325654 0 0 0 0.5535714285714284 0.5876600954251547"></path><path fill="none" d="M0.5535714285714284,0.5876600954251547 A1.127569083044156 1.127569083044156 0 0 0 0.25 0.4330127018922193"></path><path fill="none" d="M0.6,0.34641016151377546 A0.7505553499465135 0.7505553499465135 0 0 0 0.25 0.4330127018922193"></path></g><g><circle cx="0.6" cy="0.34641016151377546" r="0.01"></circle><circle cx="0.5535714285714284" cy="0.5876600954251547" r="0.01"></circle><circle cx="0.25" cy="0.4330127018922193" r="0.01"></circle></g></g><g stroke="gray" stroke-width="0.005"><g><path fill="none" d="M-0.6000000000000001,-0.3464101615137752 A0.7505553499465136 0.7505553499465136 0 0 0 -0.2500000000000002 -0.4330127018922192"></path><path fill="none" d="M-0.2500000000000002,-0.4330127018922192 A1.0408329997330665 1.0408329997330665 0 0 1 -0.5 2.7755575615628914e-16"></path><path fill="none" d="M-0.6000000000000001,-0.3464101615137752 A0.7505553499465135 0.7505553499465135 0 0 1 -0.5 2.7755575615628914e-16"></path></g><g><circle cx="-0.6000000000000001" cy="-0.3464101615137752" r="0.01"></circle><circle cx="-0.2500000000000002" cy="-0.4330127018922192" r="0.01"></circle><circle cx="-0.5" cy="2.7755575615628914e-16" r="0.01"></circle></g></g><g stroke="gray" stroke-width="0.005"><g><path fill="none" d="M2.220446049250313e-16,-0.6928203230275509 A0.7505553499465139 0.7505553499465139 0 0 0 0.2500000000000001 -0.43301270189221924"></path><path fill="none" d="M0.2500000000000001,-0.43301270189221924 A1.0408329997330665 1.0408329997330665 0 0 1 -0.2499999999999999 -0.4330127018922194"></path><path fill="none" d="M2.220446049250313e-16,-0.6928203230275509 A0.7505553499465132 0.7505553499465132 0 0 1 -0.2499999999999999 -0.4330127018922194"></path></g><g><circle cx="2.220446049250313e-16" cy="-0.6928203230275509" r="0.01"></circle><circle cx="0.2500000000000001" cy="-0.43301270189221924" r="0.01"></circle><circle cx="-0.2499999999999999" cy="-0.4330127018922194" r="0.01"></circle></g></g><g stroke="gray" stroke-width="0.005"><g><path fill="none" d="M-0.6,0.34641016151377557 A0.7505553499465133 0.7505553499465133 0 0 0 -0.5 1.6653345369377348e-16"></path><path fill="none" d="M-0.5,1.6653345369377348e-16 A1.040832999733066 1.040832999733066 0 0 1 -0.2499999999999999 0.4330127018922194"></path><path fill="none" d="M-0.6,0.34641016151377557 A0.7505553499465132 0.7505553499465132 0 0 1 -0.2499999999999999 0.4330127018922194"></path></g><g><circle cx="-0.6" cy="0.34641016151377557" r="0.01"></circle><circle cx="-0.5" cy="1.6653345369377348e-16" r="0.01"></circle><circle cx="-0.2499999999999999" cy="0.4330127018922194" r="0.01"></circle></g></g><g stroke="gray" stroke-width="0.005"><g><path fill="none" d="M0.6,-0.34641016151377546 A0.7505553499465131 0.7505553499465131 0 0 0 0.5 0"></path><path fill="none" d="M0.5,0 A1.040832999733066 1.040832999733066 0 0 1 0.25 -0.4330127018922193"></path><path fill="none" d="M0.6,-0.34641016151377546 A0.7505553499465135 0.7505553499465135 0 0 1 0.25 -0.4330127018922193"></path></g><g><circle cx="0.6" cy="-0.34641016151377546" r="0.01"></circle><circle cx="0.5" cy="0" r="0.01"></circle><circle cx="0.25" cy="-0.4330127018922193" r="0.01"></circle></g></g><g stroke="gray" stroke-width="0.005"><g><path fill="none" d="M2.220446049250313e-16,0.6928203230275509 A0.7505553499465132 0.7505553499465132 0 0 0 -0.2499999999999999 0.4330127018922194"></path><path fill="none" d="M-0.2499999999999999,0.4330127018922194 A1.0408329997330665 1.0408329997330665 0 0 1 0.2500000000000001 0.43301270189221924"></path><path fill="none" d="M2.220446049250313e-16,0.6928203230275509 A0.7505553499465139 0.7505553499465139 0 0 1 0.2500000000000001 0.43301270189221924"></path></g><g><circle cx="2.220446049250313e-16" cy="0.6928203230275509" r="0.01"></circle><circle cx="-0.2499999999999999" cy="0.4330127018922194" r="0.01"></circle><circle cx="0.2500000000000001" cy="0.43301270189221924" r="0.01"></circle></g></g><g stroke="gray" stroke-width="0.005"><g><path fill="none" d="M0.6,0.34641016151377546 A0.7505553499465135 0.7505553499465135 0 0 0 0.25 0.4330127018922193"></path><path fill="none" d="M0.25,0.4330127018922193 A1.0408329997330668 1.0408329997330668 0 0 1 0.5 0"></path><path fill="none" d="M0.6,0.34641016151377546 A0.7505553499465131 0.7505553499465131 0 0 1 0.5 0"></path></g><g><circle cx="0.6" cy="0.34641016151377546" r="0.01"></circle><circle cx="0.25" cy="0.4330127018922193" r="0.01"></circle><circle cx="0.5" cy="0" r="0.01"></circle></g></g><g stroke="gray" stroke-width="0.005"><g><line x1="0" y1="0" x2="-0.5" y2="2.220446049250313e-16"></line><path fill="none" d="M-0.5,2.220446049250313e-16 A1.0408329997330665 1.0408329997330665 0 0 0 -0.2500000000000002 -0.4330127018922192"></path><line x1="0" y1="0" x2="-0.2500000000000002" y2="-0.4330127018922192"></line></g><g><circle cx="0" cy="0" r="0.01"></circle><circle cx="-0.5" cy="2.220446049250313e-16" r="0.01"></circle><circle cx="-0.2500000000000002" cy="-0.4330127018922192" r="0.01"></circle></g></g><g stroke="gray" stroke-width="0.005"><g><line x1="0" y1="0" x2="-0.2499999999999999" y2="-0.4330127018922194"></line><path fill="none" d="M-0.2499999999999999,-0.4330127018922194 A1.0408329997330668 1.0408329997330668 0 0 0 0.25000000000000006 -0.4330127018922193"></path><line x1="0" y1="0" x2="0.25000000000000006" y2="-0.4330127018922193"></line></g><g><circle cx="0" cy="0" r="0.01"></circle><circle cx="-0.2499999999999999" cy="-0.4330127018922194" r="0.01"></circle><circle cx="0.25000000000000006" cy="-0.4330127018922193" r="0.01"></circle></g></g><g stroke="gray" stroke-width="0.005"><g><line x1="0" y1="0" x2="-0.2499999999999999" y2="0.4330127018922194"></line><path fill="none" d="M-0.2499999999999999,0.4330127018922194 A1.0408329997330665 1.0408329997330665 0 0 0 -0.5 2.220446049250313e-16"></path><line x1="0" y1="0" x2="-0.5" y2="2.220446049250313e-16"></line></g><g><circle cx="0" cy="0" r="0.01"></circle><circle cx="-0.2499999999999999" cy="0.4330127018922194" r="0.01"></circle><circle cx="-0.5" cy="2.220446049250313e-16" r="0.01"></circle></g></g><g stroke="gray" stroke-width="0.005"><g><line x1="0" y1="0" x2="0.25000000000000006" y2="-0.4330127018922193"></line><path fill="none" d="M0.25000000000000006,-0.4330127018922193 A1.0408329997330663 1.0408329997330663 0 0 0 0.5 0"></path><line x1="0" y1="0" x2="0.5" y2="0"></line></g><g><circle cx="0" cy="0" r="0.01"></circle><circle cx="0.25000000000000006" cy="-0.4330127018922193" r="0.01"></circle><circle cx="0.5" cy="0" r="0.01"></circle></g></g><g stroke="gray" stroke-width="0.005"><g><line x1="0" y1="0" x2="0.25000000000000006" y2="0.4330127018922193"></line><path fill="none" d="M0.25000000000000006,0.4330127018922193 A1.040832999733066 1.040832999733066 0 0 0 -0.2499999999999999 0.4330127018922194"></path><line x1="0" y1="0" x2="-0.2499999999999999" y2="0.4330127018922194"></line></g><g><circle cx="0" cy="0" r="0.01"></circle><circle cx="0.25000000000000006" cy="0.4330127018922193" r="0.01"></circle><circle cx="-0.2499999999999999" cy="0.4330127018922194" r="0.01"></circle></g></g><g stroke="gray" stroke-width="0.005"><g><line x1="0" y1="0" x2="0.5" y2="0"></line><path fill="none" d="M0.5,0 A1.040832999733066 1.040832999733066 0 0 0 0.25000000000000006 0.4330127018922193"></path><line x1="0" y1="0" x2="0.25000000000000006" y2="0.4330127018922193"></line></g><g><circle cx="0" cy="0" r="0.01"></circle><circle cx="0.5" cy="0" r="0.01"></circle><circle cx="0.25000000000000006" cy="0.4330127018922193" r="0.01"></circle></g></g></g></svg>